<svg viewBox="0 0 400 200" xmlns="http://www.w3.org/2000/svg">
  <defs>
    <linearGradient id="g" x1="0" y1="0" x2="0" y2="1">
      <stop offset="0" stop-color="#ffcf9e"/><stop offset="1" stop-color="#ffe9d2"/>
    </linearGradient>
  </defs>
  <rect width="400" height="200" fill="url(#g)"/>
  <!-- Wimpelkette -->
  <path d="M30 34 C140 14 260 14 370 34" stroke="#9c7a55" stroke-width="1.5" fill="none"/>
  <path d="M70 30 l10 0 l-5 12 z" fill="#e8514b"/>
  <path d="M130 26 l10 0 l-5 12 z" fill="#ffd54a"/>
  <path d="M195 24 l10 0 l-5 12 z" fill="#4caf7d"/>
  <path d="M260 26 l10 0 l-5 12 z" fill="#5b8def"/>
  <path d="M320 30 l10 0 l-5 12 z" fill="#e8514b"/>
  <!-- Trödeltisch -->
  <rect x="70" y="120" width="260" height="14" rx="3" fill="#9c7a55"/>
  <rect x="84" y="134" width="8" height="40" fill="#7a5d40"/>
  <rect x="308" y="134" width="8" height="40" fill="#7a5d40"/>
  <!-- Trödel-Waren auf dem Tisch -->
  <rect x="92" y="96" width="34" height="24" rx="2" fill="#5b8def"/>
  <circle cx="150" cy="108" r="12" fill="#e8514b"/>
  <rect x="176" y="92" width="20" height="28" rx="2" fill="#4caf7d"/>
  <path d="M214 120 l14 -22 l14 22 z" fill="#ffd54a"/>
  <circle cx="262" cy="106" r="14" fill="#d98cc0"/>
  <rect x="288" y="98" width="26" height="22" rx="2" fill="#e8a23b"/>
  <!-- Kiste davor -->
  <rect x="150" y="150" width="48" height="30" rx="2" fill="#b07d4e"/>
  <path d="M150 158 h48 M174 150 v30" stroke="#7a5d40" stroke-width="1.5"/>
</svg>
