<svg viewBox="0 0 400 200" xmlns="http://www.w3.org/2000/svg">
  <defs>
    <linearGradient id="g" x1="0" y1="0" x2="0" y2="1">
      <stop offset="0" stop-color="#ffcf9e"/><stop offset="1" stop-color="#ffe9d2"/>
    </linearGradient>
  </defs>
  <rect width="400" height="200" fill="url(#g)"/>
  <rect x="60" y="40" width="9" height="9" fill="#e8514b" transform="rotate(20 64 44)"/>
  <rect x="330" y="50" width="9" height="9" fill="#4caf7d" transform="rotate(-20 334 54)"/>
  <circle cx="120" cy="36" r="5" fill="#ffd54a"/><circle cx="280" cy="34" r="5" fill="#5b8def"/>
  <g transform="translate(200,120)">
    <ellipse cx="-22" cy="-30" rx="20" ry="24" fill="#e8514b"/>
    <ellipse cx="6" cy="-40" rx="20" ry="24" fill="#ffd54a"/>
    <ellipse cx="28" cy="-24" rx="20" ry="24" fill="#4caf7d"/>
    <ellipse cx="2" cy="-16" rx="20" ry="24" fill="#5b8def"/>
    <path d="M-22 -6 L0 30 M6 -16 L0 30 M28 0 L0 30 M2 8 L0 30" stroke="#9c7a55" stroke-width="1.5" fill="none"/>
  </g>
</svg>
